<svg xmlns="http://www.w3.org/2000/svg"
        xmlns:xlink="http://www.w3.org/1999/xlink"
        width="1749px" height="1210px">
    <defs>
        <linearGradient id="PSgrad_0" x1="0%" x2="0%" y1="100%" y2="0%">
            <stop offset="0%" stop-color="rgb(255,119,0)" stop-opacity="1" />
            <stop offset="100%" stop-color="rgb(255,204,0)" stop-opacity="1" />
        </linearGradient>
        <linearGradient id="PSgrad_1" x1="0%" x2="0%" y1="100%" y2="0%">
            <stop offset="0%" stop-color="rgb(0,185,207)" stop-opacity="1" />
            <stop offset="100%" stop-color="rgb(0,228,255)" stop-opacity="1" />
        </linearGradient>
        <linearGradient id="PSgrad_2" x1="0%" x2="0%" y1="100%" y2="0%">
            <stop offset="0%" stop-color="rgb(93,198,5)" stop-opacity="1" />
            <stop offset="100%" stop-color="rgb(17,244,103)" stop-opacity="1" />
        </linearGradient>

    </defs>
    <path fill-rule="evenodd"  fill="url(#PSgrad_0)"
          d="M589.000,1166.000 C601.150,1166.000 611.000,1175.850 611.000,1188.000 C611.000,1200.150 601.150,1210.000 589.000,1210.000 C576.850,1210.000 567.000,1200.150 567.000,1188.000 C567.000,1175.850 576.850,1166.000 589.000,1166.000 Z"/>
    <path fill-rule="evenodd"  fill="url(#PSgrad_1)"
          d="M1540.000,278.000 C1554.912,278.000 1567.000,290.088 1567.000,305.000 C1567.000,319.912 1554.912,332.000 1540.000,332.000 C1525.088,332.000 1513.000,319.912 1513.000,305.000 C1513.000,290.088 1525.088,278.000 1540.000,278.000 Z"/>
    <path fill-rule="evenodd"  fill="url(#PSgrad_2)"
          d="M1651.000,388.000 C1705.124,388.000 1749.000,431.876 1749.000,486.000 C1749.000,540.124 1705.124,584.000 1651.000,584.000 C1596.876,584.000 1553.000,540.124 1553.000,486.000 C1553.000,431.876 1596.876,388.000 1651.000,388.000 Z"/>
    <path fill-rule="evenodd"  fill="url(#PSgrad_1)"
          d="M79.500,747.000 C123.407,747.000 159.000,782.593 159.000,826.500 C159.000,870.407 123.407,906.000 79.500,906.000 C35.593,906.000 0.000,870.407 0.000,826.500 C0.000,782.593 35.593,747.000 79.500,747.000 Z"/>
    <path fill-rule="evenodd"  fill="url(#PSgrad_0)"
          d="M770.500,-0.000 C796.734,-0.000 818.000,21.266 818.000,47.500 C818.000,73.734 796.734,95.000 770.500,95.000 C744.266,95.000 723.000,73.734 723.000,47.500 C723.000,21.266 744.266,-0.000 770.500,-0.000 Z"/>
</svg>
