<svg width="1920" height="1220" xmlns="http://www.w3.org/2000/svg">
 <defs>
  <linearGradient y2="0%" y1="100%" x2="0%" x1="0%" id="PSgrad_0">
   <stop stop-color="rgb(255,119,0)" offset="0%"/>
   <stop stop-color="rgb(255,204,0)" offset="100%"/>
  </linearGradient>
  <linearGradient y2="0%" y1="100%" x2="0%" x1="0%" id="PSgrad_1">
   <stop stop-color="rgb(93,198,5)" offset="0%"/>
   <stop stop-color="rgb(17,244,103)" offset="100%"/>
  </linearGradient>
 </defs>
 <g>
  <title>background</title>
  <rect fill="none" id="canvas_background" height="1222" width="1922" y="-1" x="-1"/>
 </g>
 <g>
  <title>Layer 1</title>
  <path id="svg_1" d="m-31.666809,370.998c0.799,-2.431 228.849,172.075 337.842,184.921c265.016,31.233 729.505,-117.954 1102.158,-132.921c305.279,-12.262 541,143.001 541,143.001l17,634.416c0,0 -152.121,16.244 -330,12.001c-194.348,-4.637 -445.935,-98.506 -627,-91c-340.722,14.122 -438.659,97.999 -711,97.999c-183.887,0 -307,-87.999 -307,-87.999l-23,-760.418z" fill="rgb(0, 194, 217)" opacity="0.529" fill-rule="evenodd"/>
  <path id="svg_2" d="m-8.666809,489.998c0,0 182.786,55 296,55c266.85,0 748.347,-76.033 1121,-91c305.279,-12.261 541,112.001 541,112.001l-6,565.417c0,0 -127.121,46.243 -305,42c-194.348,-4.638 -447.935,-59.506 -629,-52c-340.722,14.122 -438.659,66.999 -711,66.999c-183.887,0 -307,-56.999 -307,-56.999l0,-641.418z" fill="rgb(0, 194, 217)" fill-rule="evenodd"/>
  <path id="svg_3" d="m-8.666809,608.584c0,0 182.786,97.415 296,97.415c266.85,0 736.347,-185.608 1109,-196.001c305.279,-8.515 553,151.363 553,151.363l-6,443.054c0,0 -127.121,32.114 -305,29.166c-194.348,-3.221 -411.935,-189.795 -593,-184.583c-340.722,9.807 -468.659,123 -741,123c-183.887,0 -318,-98 -318,-98l5,-365.414z" fill="rgb(88, 226, 242)" opacity="0.231" fill-rule="evenodd"/>
  <path id="svg_4" d="m-8.666809,718.771c0,0 182.786,94.226 296,94.226c266.85,0 753.347,-234.404 1126,-240c305.279,-4.583 536,174.186 536,174.186l-6,238.506c0,0 19.734,79.438 -157.975,87.379c-174.772,7.81 -386.256,-228.071 -571.025,-227.07c-340.758,1.844 -639.659,328.999 -912,328.999c-183.887,0 -311,-189.308 -311,-189.308l0,-266.918z" fill="rgb(88, 226, 242)" opacity="0.231" fill-rule="evenodd"/>
  <path id="svg_5" d="m224.833191,244c46.668,0 84.5,37.832 84.5,84.5c0,46.668 -37.832,84.5 -84.5,84.5c-46.668,0 -84.5,-37.832 -84.5,-84.5c0,-46.668 37.832,-84.5 84.5,-84.5z" fill="url(#PSgrad_0)" fill-rule="evenodd"/>
  <path id="svg_6" d="m1618.333191,0c13.255,0 24,10.745 24,24c0,13.255 -10.745,24 -24,24c-13.255,0 -24,-10.745 -24,-24c0,-13.255 10.745,-24 24,-24z" fill="url(#PSgrad_1)" fill-rule="evenodd"/>
 </g>
</svg>