<?xml version="1.0" encoding="UTF-8" standalone="no"?>
<svg
   xmlns:dc="http://purl.org/dc/elements/1.1/"
   xmlns:cc="http://creativecommons.org/ns#"
   xmlns:rdf="http://www.w3.org/1999/02/22-rdf-syntax-ns#"
   xmlns:svg="http://www.w3.org/2000/svg"
   xmlns="http://www.w3.org/2000/svg"
   xmlns:sodipodi="http://sodipodi.sourceforge.net/DTD/sodipodi-0.dtd"
   xmlns:inkscape="http://www.inkscape.org/namespaces/inkscape"
   width="1919.9999999999998"
   height="884"
   version="1.1"
   id="svg3779"
   sodipodi:docname="bg-home-welcome.svg"
   inkscape:version="0.92.2 (5c3e80d, 2017-08-06)">
  <metadata
     id="metadata3783">
    <rdf:RDF>
      <cc:Work
         rdf:about="">
        <dc:format>image/svg+xml</dc:format>
        <dc:type
           rdf:resource="http://purl.org/dc/dcmitype/StillImage" />
      </cc:Work>
    </rdf:RDF>
  </metadata>
  <sodipodi:namedview
     pagecolor="#ffffff"
     bordercolor="#666666"
     borderopacity="1"
     objecttolerance="10"
     gridtolerance="10"
     guidetolerance="10"
     inkscape:pageopacity="0"
     inkscape:pageshadow="2"
     inkscape:window-width="1920"
     inkscape:window-height="1017"
     id="namedview3781"
     showgrid="false"
     inkscape:zoom="0.65002264"
     inkscape:cx="1265.4859"
     inkscape:cy="586.44713"
     inkscape:window-x="-8"
     inkscape:window-y="-8"
     inkscape:window-maximized="1"
     inkscape:current-layer="g3777" />
  <defs
     id="defs3757">
    <linearGradient
       y2="0%"
       y1="100%"
       x2="0%"
       x1="0%"
       id="PSgrad_0">
      <stop
         stop-color="rgb(93,198,5)"
         offset="0%"
         id="stop3742" />
      <stop
         stop-color="rgb(17,244,103)"
         offset="100%"
         id="stop3744" />
    </linearGradient>
    <linearGradient
       y2="0%"
       y1="100%"
       x2="0%"
       x1="0%"
       id="PSgrad_1">
      <stop
         stop-color="rgb(255,119,0)"
         offset="0%"
         id="stop3747" />
      <stop
         stop-color="rgb(255,204,0)"
         offset="100%"
         id="stop3749" />
    </linearGradient>
    <linearGradient
       y2="0%"
       y1="100%"
       x2="0%"
       x1="0%"
       id="PSgrad_2">
      <stop
         stop-color="rgb(0,185,207)"
         offset="0%"
         id="stop3752" />
      <stop
         stop-color="rgb(0,228,255)"
         offset="100%"
         id="stop3754" />
    </linearGradient>
  </defs>
  <g
     id="g3762">
    <title
       id="title3759">background</title>
    <rect
       fill="none"
       id="canvas_background"
       height="886"
       width="1922"
       y="-1"
       x="-1" />
  </g>
  <g
     id="g3777">
    <title
       id="title3764">Layer 1</title>
    <path
       id="svg_1"
       d="m745.499935,-15.997l1032.44,0c14.888,0 169.917,-28.881 169.917,-14l32,494.995c0,14.88 -6.112,109 -21,109c0,0 -91.021,188.684 -292,273.999c-136.691,58.027 -347.249,48.691 -525.094,-24.262c-191.406,-78.519 -92.986,-364.867 -167.131,-465.224c-61.102,-82.701 -91.18,-66.18 -186.001,-105.079c-166.17,-68.17 -124,-252.365 -124,-252.365c0,-14.88 65.982,-17.064 80.869,-17.064z"
       fill="rgb(0, 186, 207)"
       fill-rule="evenodd" />
    <path
       id="svg_2"
       d="m 873.67894,-20.99 h 925.22896 c 13.341,0 152.272,-20.585 152.272,-9.978 l 28.677,352.816 c 0,10.605 -25.397,86.923 -18.819,77.692 0.826,-1.16 98.446,-15.881 -31.181,131.458 -142.8063,162.31775 -251.8831,278.37641 -345.4242,342.32794 -89.6534,14.67245 -95.7263,11.06786 -148.5302,12.24435 -18.8045,-1.26415 -38.2266,-1.46094 -57.2385,-3.372 -58.085,-5.83862 -114.6081,-16.34585 -156.3171,-30.57215 C 1110.714,696.91712 1037.1025,393.61297 987.85694,335.997 c -52.011,-60.85 -59.75,-86.419 -145,-113.999 -149.096,-48.236 -131,-257.995 -131,-257.995 0,-10.606 148.481,15.007 161.822,15.007 z"
       inkscape:connector-curvature="0"
       style="opacity:0.231;fill:#58e2f2;fill-rule:evenodd"
       sodipodi:nodetypes="ssccccccsccccs" />
    <path
       id="svg_3"
       d="m 831.85694,-53.997 946.08296,38 c 14.888,0 169.917,-28.881 169.917,-14 l 113,337.995 c 0,14.88 -91.118,180.578 -106,180.999 -180.741,5.127 -203.616,208.973 -415.788,287.569 -174.708,64.716 -358.254,-45.658 -374.269,-123.969 -30.2313,-147.81859 -96.4222,-142.28614 -160.3166,-197.64141 -1.2856,-10.51907 -2.4209,-16.89074 -3.8841,-25.2218 -2.26519,-12.89707 -2.78445,-23.74962 -15.83859,-54.25237 -3.1162,-9.92234 -24.77526,-37.4516 -44.18533,-56.24941 -9.49303,-9.19359 -22.22219,-17.29054 -30.14834,-21.99469 C 870.0729,207.68711 802.68416,89.680171 660.08806,41.181344 660.97111,29.958797 661.53641,13.691139 664.4035,0.05685717 666.27039,-8.8210462 654.99137,-15.732346 648.62747,-17.099317 c -83.364,-17.906 113.28746,-89.022683 114.22946,-89.897683 10.9,-10.13 54.112,53 69.00001,53 z"
       inkscape:connector-curvature="0"
       style="opacity:0.231;fill:#58e2f2;fill-rule:evenodd"
       sodipodi:nodetypes="ccccccccscsccsccc" />
    <path
       id="svg_4"
       d="m923.791935,-70.744l1032.196,0c14.884,0 169.876,-28.886 169.876,-14.002l31.993,495.092c0,14.883 -28.333,121.977 -20.995,109.022c0.921,-1.627 -42.707,-382.629 -245.005,-281.37c-48.593,24.323 -355.856,607.891 -486,594c-206.89,-22.082 -175.253,-378.81 -246,-484.001c-57.348,-85.268 -233.895,-221.297 -329,-259.999c-166.333,-67.688 12.084,-141.675 12.084,-141.675c0,-14.883 65.967,-17.067 80.851,-17.067z"
       fill="rgb(88, 226, 242)"
       opacity="0.231"
       fill-rule="evenodd" />
    <path
       id="svg_5"
       d="m932.763935,-27.001l832.315,0c12.002,0 136.981,-11.073 136.981,-5.367l25.797,189.779c0,5.706 -22.246,47.395 -16.929,41.792c86.393,-91.065 48.878,123.154 -84.071,228.794c-110.142,87.52 -214.684,152.202 -347,80.001c-138.005,-75.305 -283.772,-307.991 -342,-347.001c-47.951,-32.123 -35.824,-51.449 -99,-96.999c-110.811,-79.89 -141,-109.996 -141,-109.996c0,-5.704 22.905,18.997 34.907,18.997z"
       fill="rgb(88, 226, 242)"
       opacity="0.231"
       fill-rule="evenodd" />
    <path
       id="svg_6"
       d="m932.763935,-29.771l832.315,0c12.002,0 136.981,-6.688 136.981,-3.242l25.797,114.629c0,3.447 -94.594,-4.347 -88,-3.619c93.531,10.334 -75.36,-20.936 -173,115.001c-78.204,108.877 -49.962,302.506 -194.296,299.587c-161.761,-3.271 -253.646,-417.818 -310.463,-444.202c-46.916,-21.785 -124.142,-35.849 -200.831,-44.81c-134.123,-15.669 -93.698,-29.392 -93.698,-29.392c0,-3.446 53.193,-3.952 65.195,-3.952z"
       fill="rgb(88, 226, 242)"
       opacity="0.231"
       fill-rule="evenodd" />
    <path
       id="svg_7"
       d="m101.823935,729.89c-29.51,31.761 -79.18,33.584 -110.941,4.075c-31.761,-29.509 -33.586,-79.18 -4.076,-110.939c29.51,-31.761 79.18,-33.588 110.94,-4.079c31.761,29.513 33.586,79.18 4.077,110.943z"
       fill="url(#PSgrad_0)"
       fill-rule="evenodd" />
    <path
       id="svg_8"
       d="m796.030935,724.083c-15.224,16.386 -40.85,17.329 -57.237,2.105c-16.386,-15.226 -17.328,-40.851 -2.103,-57.238c15.225,-16.387 40.851,-17.327 57.237,-2.103c16.386,15.225 17.328,40.851 2.103,57.236z"
       fill="url(#PSgrad_1)"
       fill-rule="evenodd" />
    <path
       id="svg_9"
       d="m285.356935,429c6.351,0 11.5,5.149 11.5,11.5c0,6.351 -5.149,11.5 -11.5,11.5c-6.351,0 -11.5,-5.149 -11.5,-11.5c0,-6.351 5.149,-11.5 11.5,-11.5z"
       fill="url(#PSgrad_0)"
       fill-rule="evenodd" />
    <path
       id="svg_10"
       d="m89.356935,343c6.351,0 11.5,5.149 11.5,11.5c0,6.351 -5.149,11.5 -11.5,11.5c-6.351,0 -11.5,-5.149 -11.5,-11.5c0,-6.351 5.149,-11.5 11.5,-11.5z"
       fill="url(#PSgrad_1)"
       fill-rule="evenodd" />
    <path
       id="svg_11"
       d="m296.856935,169c31.48,0 57,25.52 57,57c0,31.48 -25.52,57 -57,57c-31.48,0 -57,-25.52 -57,-57c0,-31.48 25.52,-57 57,-57z"
       fill="url(#PSgrad_2)"
       fill-rule="evenodd" />
  </g>
</svg>
