<svg width="1920" height="957" xmlns="http://www.w3.org/2000/svg">
 <g>
  <title>Layer 1</title>
  <path id="svg_1" d="m-55,-30.672575c0.799,-2.43 228.849,172.076 337.842,184.921c265.016,31.233 729.505,-117.954 1102.158,-132.92c305.279,-12.261 541,143 541,143l17,764.693c0,0 -152.121,16.244 -330,12.001c-194.348,-4.637 -445.935,-98.506 -627,-91.001c-340.722,14.123 -438.659,98.001 -711,98.001c-183.887,0 -307,-88 -307,-88l-23,-890.695z" fill="rgb(0, 194, 217)" opacity="0.529" fill-rule="evenodd"/>
  <path id="svg_2" d="m-32,88.327425c0,0 182.786,55.001 296,55.001c266.85,0 748.347,-76.033 1121,-91.001c305.279,-12.261 541,112.001 541,112.001l-6,695.694c0,0 -127.121,46.243 -305,42c-194.348,-4.637 -447.935,-59.506 -629,-52.001c-340.722,14.123 -438.659,67 -711,67c-183.887,0 -307,-56.999 -307,-56.999l0,-771.695z" fill="rgb(0, 194, 217)" fill-rule="evenodd"/>
  <path id="svg_3" d="m-32,206.914425c0,0 182.786,97.414 296,97.414c266.85,0 736.347,-185.607 1109,-196c305.279,-8.515 553,151.362 553,151.362l-6,563.055c0,0 -127.121,32.114 -305,29.165c-194.348,-3.219 -411.935,-189.795 -593,-184.582c-340.722,9.807 -468.659,123 -741,123c-183.887,0 -318,-98 -318,-98l5,-485.414z" fill="rgb(88, 226, 242)" opacity="0.231" fill-rule="evenodd"/>
  <path id="svg_4" d="m-32,317.100425c0,0 182.786,94.228 296,94.228c266.85,0 753.347,-234.405 1126,-240c305.279,-4.584 536,174.185 536,174.185l-6,358.506c0,0 19.734,79.437 -157.975,87.379c-174.772,7.81 -386.256,-228.069 -571.025,-227.07c-340.758,1.844 -639.659,328.999 -912,328.999c-183.887,0 -311,-189.308 -311,-189.308l0,-386.919z" fill="rgb(88, 226, 242)" opacity="0.231" fill-rule="evenodd"/>
 </g>
</svg>
