<svg width="1919.9999999999998" height="884" xmlns="http://www.w3.org/2000/svg">
 <defs>
  <linearGradient y2="0%" y1="100%" x2="0%" x1="0%" id="PSgrad_0">
   <stop stop-color="rgb(93,198,5)" offset="0%"/>
   <stop stop-color="rgb(17,244,103)" offset="100%"/>
  </linearGradient>
  <linearGradient y2="0%" y1="100%" x2="0%" x1="0%" id="PSgrad_1">
   <stop stop-color="rgb(255,119,0)" offset="0%"/>
   <stop stop-color="rgb(255,204,0)" offset="100%"/>
  </linearGradient>
  <linearGradient y2="0%" y1="100%" x2="0%" x1="0%" id="PSgrad_2">
   <stop stop-color="rgb(0,185,207)" offset="0%"/>
   <stop stop-color="rgb(0,228,255)" offset="100%"/>
  </linearGradient>
 </defs>
 <g>
  <title>background</title>
  <rect fill="none" id="canvas_background" height="886" width="1922" y="-1" x="-1"/>
 </g>
 <g>
  <title>Layer 1</title>
  <path id="svg_1" d="m745.499935,-15.997l1032.44,0c14.888,0 169.917,-28.881 169.917,-14l32,494.995c0,14.88 -6.112,109 -21,109c0,0 -91.021,188.684 -292,273.999c-136.691,58.027 -347.249,48.691 -525.094,-24.262c-191.406,-78.519 -92.986,-364.867 -167.131,-465.224c-61.102,-82.701 -91.18,-66.18 -186.001,-105.079c-166.17,-68.17 -124,-252.365 -124,-252.365c0,-14.88 65.982,-17.064 80.869,-17.064z" fill="rgb(0, 186, 207)" fill-rule="evenodd"/>
  <path id="svg_2" d="m873.678935,-20.99l925.229,0c13.341,0 152.272,-20.585 152.272,-9.978l28.677,352.816c0,10.605 -25.397,86.923 -18.819,77.692c0.826,-1.16 98.446,-15.881 -31.181,131.458c-273.157,310.478 -431.937,445.511 -596.383,409.105c-176.391,-39.049 -281.595,-529.202 -345.617,-604.106c-52.011,-60.85 -59.75,-86.419 -145,-113.999c-149.096,-48.236 -131,-257.995 -131,-257.995c0,-10.606 148.481,15.007 161.822,15.007z" fill="rgb(88, 226, 242)" opacity="0.231" fill-rule="evenodd"/>
  <path id="svg_3" d="m831.856935,-53.997l946.083,38c14.888,0 169.917,-28.881 169.917,-14l113,337.995c0,14.88 -91.118,180.578 -106,180.999c-180.741,5.127 -203.616,208.973 -415.788,287.569c-174.708,64.716 -358.254,-45.658 -374.269,-123.969c-41.698,-203.886 -151.808,-116.027 -229.943,-298.6c-40.428,-94.465 -108.866,-279.863 -319,-325c-83.364,-17.906 146.058,-135.119 147,-135.994c10.9,-10.13 54.112,53 69,53z" fill="rgb(88, 226, 242)" opacity="0.231" fill-rule="evenodd"/>
  <path id="svg_4" d="m923.791935,-70.744l1032.196,0c14.884,0 169.876,-28.886 169.876,-14.002l31.993,495.092c0,14.883 -28.333,121.977 -20.995,109.022c0.921,-1.627 -42.707,-382.629 -245.005,-281.37c-48.593,24.323 -355.856,607.891 -486,594c-206.89,-22.082 -175.253,-378.81 -246,-484.001c-57.348,-85.268 -233.895,-221.297 -329,-259.999c-166.333,-67.688 12.084,-141.675 12.084,-141.675c0,-14.883 65.967,-17.067 80.851,-17.067z" fill="rgb(88, 226, 242)" opacity="0.231" fill-rule="evenodd"/>
  <path id="svg_5" d="m932.763935,-27.001l832.315,0c12.002,0 136.981,-11.073 136.981,-5.367l25.797,189.779c0,5.706 -22.246,47.395 -16.929,41.792c86.393,-91.065 48.878,123.154 -84.071,228.794c-110.142,87.52 -214.684,152.202 -347,80.001c-138.005,-75.305 -283.772,-307.991 -342,-347.001c-47.951,-32.123 -35.824,-51.449 -99,-96.999c-110.811,-79.89 -141,-109.996 -141,-109.996c0,-5.704 22.905,18.997 34.907,18.997z" fill="rgb(88, 226, 242)" opacity="0.231" fill-rule="evenodd"/>
  <path id="svg_6" d="m932.763935,-29.771l832.315,0c12.002,0 136.981,-6.688 136.981,-3.242l25.797,114.629c0,3.447 -94.594,-4.347 -88,-3.619c93.531,10.334 -75.36,-20.936 -173,115.001c-78.204,108.877 -49.962,302.506 -194.296,299.587c-161.761,-3.271 -253.646,-417.818 -310.463,-444.202c-46.916,-21.785 -124.142,-35.849 -200.831,-44.81c-134.123,-15.669 -93.698,-29.392 -93.698,-29.392c0,-3.446 53.193,-3.952 65.195,-3.952z" fill="rgb(88, 226, 242)" opacity="0.231" fill-rule="evenodd"/>
  <path id="svg_7" d="m101.823935,729.89c-29.51,31.761 -79.18,33.584 -110.941,4.075c-31.761,-29.509 -33.586,-79.18 -4.076,-110.939c29.51,-31.761 79.18,-33.588 110.94,-4.079c31.761,29.513 33.586,79.18 4.077,110.943z" fill="url(#PSgrad_0)" fill-rule="evenodd"/>
  <path id="svg_8" d="m796.030935,724.083c-15.224,16.386 -40.85,17.329 -57.237,2.105c-16.386,-15.226 -17.328,-40.851 -2.103,-57.238c15.225,-16.387 40.851,-17.327 57.237,-2.103c16.386,15.225 17.328,40.851 2.103,57.236z" fill="url(#PSgrad_1)" fill-rule="evenodd"/>
  <path id="svg_9" d="m285.356935,429c6.351,0 11.5,5.149 11.5,11.5c0,6.351 -5.149,11.5 -11.5,11.5c-6.351,0 -11.5,-5.149 -11.5,-11.5c0,-6.351 5.149,-11.5 11.5,-11.5z" fill="url(#PSgrad_0)" fill-rule="evenodd"/>
  <path id="svg_10" d="m89.356935,343c6.351,0 11.5,5.149 11.5,11.5c0,6.351 -5.149,11.5 -11.5,11.5c-6.351,0 -11.5,-5.149 -11.5,-11.5c0,-6.351 5.149,-11.5 11.5,-11.5z" fill="url(#PSgrad_1)" fill-rule="evenodd"/>
  <path id="svg_11" d="m296.856935,169c31.48,0 57,25.52 57,57c0,31.48 -25.52,57 -57,57c-31.48,0 -57,-25.52 -57,-57c0,-31.48 25.52,-57 57,-57z" fill="url(#PSgrad_2)" fill-rule="evenodd"/>
 </g>
</svg>