<svg xmlns="http://www.w3.org/2000/svg"
        xmlns:xlink="http://www.w3.org/1999/xlink"
        width="1998px" height="850px">
    <path fill-rule="evenodd" opacity="0.529" fill="rgb(0, 194, 217)"
          d="M0.000,0.998 C0.799,-1.433 228.849,173.073 337.842,185.919 C602.858,217.152 1067.347,67.965 1440.000,52.998 C1745.279,40.736 1981.000,195.999 1981.000,195.999 L1998.000,830.415 C1998.000,830.415 1845.879,846.659 1668.000,842.416 C1473.652,837.779 1222.065,743.910 1041.000,751.416 C700.278,765.538 602.341,849.415 330.000,849.415 C146.113,849.415 23.000,761.416 23.000,761.416 L0.000,0.998 Z"/>
    <path fill-rule="evenodd" fill="rgb(0, 194, 217)"
          d="M23.000,119.998 C23.000,119.998 205.786,174.998 319.000,174.998 C585.850,174.998 1067.347,98.965 1440.000,83.998 C1745.279,71.737 1981.000,195.999 1981.000,195.999 L1975.000,761.416 C1975.000,761.416 1847.879,807.659 1670.000,803.416 C1475.652,798.778 1222.065,743.910 1041.000,751.416 C700.278,765.538 602.341,818.415 330.000,818.415 C146.113,818.415 23.000,761.416 23.000,761.416 L23.000,119.998 Z"/>
    <path fill-rule="evenodd" opacity="0.231" fill="rgb(88, 226, 242)"
          d="M23.000,238.584 C23.000,238.584 205.786,335.999 319.000,335.999 C585.850,335.999 1055.347,150.391 1428.000,139.998 C1733.279,131.483 1981.000,291.361 1981.000,291.361 L1975.000,734.415 C1975.000,734.415 1847.879,766.528 1670.000,763.581 C1475.652,760.360 1258.065,573.786 1077.000,578.998 C736.278,588.805 608.341,701.998 336.000,701.998 C152.113,701.998 18.000,603.998 18.000,603.998 L23.000,238.584 Z"/>
    <path fill-rule="evenodd" opacity="0.231" fill="rgb(88, 226, 242)"
          d="M23.000,348.771 C23.000,348.771 205.786,442.997 319.000,442.997 C585.850,442.997 1072.347,208.593 1445.000,202.997 C1750.279,198.414 1981.000,377.183 1981.000,377.183 L1975.000,615.689 C1975.000,615.689 1994.734,695.127 1817.025,703.068 C1642.253,710.878 1430.769,474.997 1246.000,475.998 C905.242,477.842 606.341,804.997 334.000,804.997 C150.113,804.997 23.000,615.689 23.000,615.689 L23.000,348.771 Z"/>
</svg>
