<?xml version="1.0"?>
<svg xmlns="http://www.w3.org/2000/svg" height="512px" viewBox="0 -20 458.00138 458" width="512px"><g><path d="m229 83.78125c-7.839844 0-14.199219 6.355469-14.199219 14.199219 0 7.839843 6.359375 14.199219 14.199219 14.199219 7.84375 0 14.199219-6.359376 14.199219-14.199219-.007813-7.839844-6.359375-14.191407-14.199219-14.199219zm0 0" data-original="#000000" class="active-path" data-old_color="#55b700" fill="#55b700"/><path d="m247.496094 152.699219c-.9375 2.113281-2.816406 3.65625-5.066406 4.167969-2.253907.511718-4.613282-.070313-6.371094-1.566407l-4.246094-3.613281 10.371094 25.347656 1.640625-3.363281c2.238281-4.546875 7.46875-6.773437 12.296875-5.226563l4.425781 1.433594-9.949219-24.160156zm0 0" data-original="#000000" class="active-path" data-old_color="#55b700" fill="#55b700"/><path d="m263.992188 85.117188 2.765624-5.320313-5.890624-1.148437c-3.53125-.671876-6.042969-3.820313-5.917969-7.414063l.191406-6.019531-5.820313 1.523437c-3.472656.917969-7.097656-.824219-8.542968-4.113281l-2.449219-5.507812-4.585937 3.898437c-2.726563 2.34375-6.761719 2.34375-9.488282 0l-4.582031-3.898437-2.445313 5.511718c-1.449218 3.285156-5.070312 5.027344-8.542968 4.109375l-5.820313-1.523437.1875 6.023437c.125 3.589844-2.386719 6.738281-5.917969 7.410157l-5.890624 1.148437 2.769531 5.328125c1.664062 3.175781.773437 7.089844-2.097657 9.230469l-4.835937 3.621093 4.839844 3.632813c2.875 2.140625 3.765625 6.058594 2.097656 9.234375l-2.765625 5.324219 5.890625 1.144531c3.53125.675781 6.042969 3.820312 5.917969 7.414062l-.1875 6.019532 5.816406-1.519532c3.472656-.917968 7.097656.824219 8.546875 4.109376l2.445313 5.507812 4.585937-3.898438c2.730469-2.34375 6.761719-2.34375 9.492187 0l4.578126 3.898438 2.449218-5.511719c1.445313-3.285156 5.070313-5.027343 8.539063-4.109375l5.824219 1.523438-.191407-6.019532c-.125-3.59375 2.390625-6.738281 5.921875-7.414062l5.886719-1.144531-2.769531-5.335938c-1.660156-3.171875-.769532-7.082031 2.101562-9.222656l4.835938-3.632813-4.828125-3.617187c-2.882813-2.140625-3.777344-6.058594-2.113281-9.242187zm-34.992188 41.066406c-15.574219 0-28.199219-12.628906-28.199219-28.203125s12.625-28.199219 28.199219-28.199219 28.199219 12.625 28.199219 28.199219c-.015625 15.566406-12.632813 28.183593-28.199219 28.203125zm0 0" data-original="#000000" class="active-path" data-old_color="#55b700" fill="#55b700"/><path d="m217.183594 157.042969c-2.886719 0-5.503906-1.703125-6.675782-4.34375l-2.898437-6.523438-10.15625 24.65625 4.425781-1.433593c4.828125-1.542969 10.058594.683593 12.296875 5.230468l1.636719 3.351563 5.808594-14.226563-2.824219-6.898437c-.527344.121093-1.070313.183593-1.613281.1875zm0 0" data-original="#000000" class="active-path" data-old_color="#55b700" fill="#55b700"/><path d="m292 9.808594v29.191406h29.34375zm0 0" data-original="#000000" class="active-path" data-old_color="#55b700" fill="#55b700"/><path d="m174.628906 348.335938 8.234375 9.011718c6.378907 6.84375 15.332031 10.703125 24.683594 10.652344h42.902344c9.363281.023438 18.3125-3.871094 24.683593-10.734375l8.234376-8.847656c1.308593-1.480469 3.175781-2.355469 5.152343-2.417969h148.480469v-248.699219c-.097656-18.503906-15.1875-33.417969-33.691406-33.300781h-58.308594v29h58.84375c3.863281 0 7.15625 2.769531 7.15625 6.636719v216.328125c-.070312 3.90625-3.253906 7.03125-7.15625 7.035156h-349.683594c-3.90625-.003906-7.085937-3.128906-7.160156-7.035156v-216.328125c0-3.867188 3.292969-6.636719 7.160156-6.636719h58.839844v-29h-58.304688c-18.503906-.117188-33.59375 14.796875-33.695312 33.300781v248.699219h148.480469c1.96875.03125 3.832031.875 5.148437 2.335938zm0 0" data-original="#000000" class="active-path" data-old_color="#55b700" fill="#55b700"/><path d="m113 107h-52v202h336v-202h-52v175.753906c.132812 3.863282-2.890625 7.109375-6.757812 7.246094h-218.484376c-3.867187-.136719-6.890624-3.382812-6.757812-7.246094zm0 0" data-original="#000000" class="active-path" data-old_color="#55b700" fill="#55b700"/><path d="m285.433594 366.675781c-9.019532 9.757813-21.695313 15.308594-34.980469 15.324219h-42.902344c-13.285156-.015625-25.960937-5.566406-34.976562-15.324219l-6.160157-6.675781h-166.414062v24.519531c-.0546875 8.859375 3.421875 17.375 9.664062 23.660157 6.246094 6.285156 14.738282 9.820312 23.59375 9.820312h391.484376c8.859374 0 17.351562-3.535156 23.59375-9.820312 6.242187-6.285157 9.722656-14.800782 9.664062-23.660157v-24.519531h-166.414062zm0 0" data-original="#000000" class="active-path" data-old_color="#55b700" fill="#55b700"/><path d="m331 53h-45.722656c-3.945313-.035156-7.15625-3.179688-7.277344-7.125v-45.875h-151v276h204zm-171.867188 157h73.9375c3.867188 0 7 3.132812 7 7s-3.132812 7-7 7h-73.9375c-3.863281 0-7-3.132812-7-7s3.136719-7 7-7zm116.554688 40h-116.554688c-3.863281 0-7-3.132812-7-7s3.136719-7 7-7h116.554688c3.863281 0 7 3.132812 7 7s-3.136719 7-7 7zm10.765625-146.175781-7.429687 5.578125 4.277343 8.242187c1.066407 2.046875 1.101563 4.476563.097657 6.554688-1.003907 2.078125-2.929688 3.5625-5.195313 4.003906l-9.082031 1.765625.289062 9.277344c.105469 2.691406-1.296875 5.21875-3.636718 6.546875l10.851562 26.359375c1.515625 3.671875.753906 7.886718-1.941406 10.800781-2.695313 2.914063-6.839844 4-10.621094 2.777344l-9.105469-2.949219-3.917969 8.03125c-1.710937 3.5-5.265624 5.71875-9.160156 5.722656-.113281 0-.226562-.003906-.339844-.007812-4.015624-.132813-7.578124-2.613282-9.097656-6.332032l-3.25-7.945312-3.632812 8.902344c-1.523438 3.71875-5.085938 6.199218-9.101563 6.332031-.113281 0-.226562 0-.339843 0-3.894532 0-7.449219-2.222656-9.15625-5.722656l-3.917969-8.03125-9.105469 2.953125c-3.78125 1.222656-7.925781.140625-10.625-2.777344-2.695312-2.914062-3.453125-7.132812-1.941406-10.804688l11.179687-27.136718c-2.527343-1.273438-4.074219-3.902344-3.964843-6.726563l.289062-9.273437-9.074219-1.765625c-2.265625-.441407-4.191406-1.925781-5.195312-4.003907-1-2.078124-.964844-4.511718.101562-6.558593l4.277344-8.234375-7.433594-5.582032c-1.84375-1.382812-2.925781-3.554687-2.925781-5.859374.003906-2.304688 1.089844-4.472657 2.933594-5.851563l7.421875-5.558594-4.277344-8.230469c-1.0625-2.050781-1.097656-4.480468-.09375-6.558593s2.929687-3.5625 5.195313-4.003907l9.078124-1.765624-.289062-9.277344c-.070312-2.308594.949219-4.515625 2.757812-5.953125 1.804688-1.441407 4.1875-1.941407 6.417969-1.355469l8.96875 2.347656 3.769531-8.488281c.9375-2.109375 2.816407-3.65625 5.066407-4.167969 2.253906-.511718 4.613281.070313 6.371093 1.566406l7.058594 6 7.0625-6.007812c1.753906-1.496094 4.113282-2.074219 6.363282-1.5625 2.246093.507812 4.125 2.046875 5.0625 4.152344l3.777343 8.5 8.972657-2.347656c2.234374-.585938 4.613281-.082032 6.417968 1.359374 1.808594 1.4375 2.828125 3.644532 2.753906 5.953126l-.289062 9.273437 9.082031 1.769531c2.269531.441406 4.195313 1.925782 5.195313 4.007813 1.003906 2.082031.964844 4.515625-.105469 6.5625l-4.269531 8.21875 7.421875 5.558593c1.84375 1.382813 2.929687 3.550782 2.929687 5.855469 0 2.304688-1.085937 4.476563-2.929687 5.859375zm0 0" data-original="#000000" class="active-path" data-old_color="#55b700" fill="#55b700"/></g> </svg>
