<?xml version="1.0"?>
<svg xmlns="http://www.w3.org/2000/svg" height="512px" viewBox="0 0 448 448" width="512px" class=""><g><path d="m136 305.320312c1.070312 1.160157 2.023438 2.398438 3.152344 3.527344 4.019531 3.964844 8.3125 7.640625 12.847656 11v-103.847656h-16zm0 0" data-original="#000000" class="active-path" data-old_color="#00bacf" fill="#00bacf"/><path d="m155.496094 125.542969c-5.285156 3.738281-10.265625 7.886719-14.894532 12.410156l26.832032 67.078125c.375.945312.566406 1.953125.566406 2.96875v121.960938c5.152344 2.765624 10.5 5.152343 16 7.136718v-159.921875l-17.527344-58.398437c-3.777344 2.058594-7.441406 4.316406-10.976562 6.765625zm0 0" data-original="#000000" class="active-path" data-old_color="#00bacf" fill="#00bacf"/><path d="m128.648438 151.144531c-1.097657 1.421875-2.03125 2.953125-3.054688 4.421875l-1.777344 4.433594h8.367188zm0 0" data-original="#000000" class="active-path" data-old_color="#00bacf" fill="#00bacf"/><path d="m120 283.601562v-67.601562h-15.535156c-1.601563 23.570312 3.804687 47.089844 15.535156 67.601562zm0 0" data-original="#000000" class="active-path" data-old_color="#00bacf" fill="#00bacf"/><path d="m200 341.503906c13.042969 2.660156 26.433594 3.167969 39.640625 1.503906 2.824219-.351562 5.597656-.871093 8.359375-1.421874v-157.585938h-48zm16-141.503906h16v16h-16zm0 32h16v40h-16zm0 0" data-original="#000000" class="active-path" data-old_color="#00bacf" fill="#00bacf"/><path d="m138.585938 176h-21.171876l-9.597656 24h40.367188zm0 0" data-original="#000000" class="active-path" data-old_color="#00bacf" fill="#00bacf"/><path d="m296 208h16v16h-16v16h16v16h-16v16h16v16h-16v31.777344c25.792969-19.316406 42.734375-48.195313 47.007812-80.136719 2.386719-18.753906.355469-37.808594-5.929687-55.640625h-41.078125zm0 0" data-original="#000000" class="active-path" data-old_color="#00bacf" fill="#00bacf"/><path d="m231.480469 58.792969.464843 47.398437c6.285157 3.597656 9.371094 10.964844 7.523438 17.96875-1.84375 7-8.164062 11.890625-15.40625 11.921875-7.242188.027344-13.597656-4.8125-15.5-11.800781-1.902344-6.984375 1.125-14.378906 7.382812-18.023438l-.457031-46.402343-38.449219 38.425781 20.914063 69.71875h52.09375l20.914063-69.71875zm0 0" data-original="#000000" class="active-path" data-old_color="#00bacf" fill="#00bacf"/><path d="m418.105469 192c-7.363281-.027344-13.753907-5.078125-15.488281-12.230469-4.417969-17.886719-11.519532-35.003906-21.066407-50.761719-3.835937-6.285156-2.882812-14.382812 2.304688-19.609374l21.167969-21.167969-45.253907-45.253907-21.167969 21.167969c-5.226562 5.1875-13.3125 6.140625-19.601562 2.3125-15.757812-9.550781-32.871094-16.652343-50.761719-21.074219-7.15625-1.730468-12.207031-8.121093-12.238281-15.488281v-29.894531h-64v29.894531c-.027344 7.363281-5.078125 13.753907-12.230469 15.488281-17.886719 4.417969-35.003906 11.519532-50.761719 21.066407-6.285156 3.835937-14.382812 2.882812-19.609374-2.304688l-21.167969-21.167969-45.253907 45.253907 21.167969 21.167969c5.1875 5.226562 6.140625 13.3125 2.3125 19.601562-9.550781 15.757812-16.652343 32.871094-21.074219 50.761719-1.730468 7.15625-8.121093 12.207031-15.488281 12.238281h-29.894531v64h29.894531c7.363281.027344 13.753907 5.078125 15.488281 12.230469 4.417969 17.886719 11.519532 35.003906 21.066407 50.761719 3.835937 6.285156 2.882812 14.382812-2.304688 19.609374l-21.167969 21.167969 45.253907 45.253907 21.167969-21.167969c2.972656-2.96875 7-4.640625 11.203124-4.648438 2.945313.003907 5.835938.8125 8.359376 2.335938 15.757812 9.550781 32.871093 16.652343 50.757812 21.074219 7.175781 1.714843 12.246094 8.109374 12.28125 15.488281v29.894531h64v-29.894531c.027344-7.363281 5.078125-13.753907 12.230469-15.488281 17.886719-4.417969 35.003906-11.519532 50.761719-21.066407 6.285156-3.835937 14.382812-2.882812 19.609374 2.304688l21.167969 21.167969 45.253907-45.253907-21.167969-21.167969c-5.1875-5.226562-6.140625-13.3125-2.3125-19.601562 9.550781-15.757812 16.652343-32.871094 21.074219-50.761719 1.730468-7.15625 8.121093-12.207031 15.488281-12.238281h29.894531v-64zm-285.753907-110.734375 8.640626 13.46875c-4.597657 2.945313-9.023438 6.152344-13.257813 9.601563l-10.132813-12.382813c4.710938-3.839844 9.632813-7.410156 14.75-10.6875zm-68.070312 92.628906c6.894531-25.195312 19.847656-48.328125 37.726562-67.375l11.65625 10.960938c-16.089843 17.136719-27.742187 37.949219-33.945312 60.625zm294.597656 67.746094c-8.261718 61-56.238281 108.976563-117.238281 117.238281-5.839844.738282-11.714844 1.109375-17.601563 1.113282-36.09375.082031-70.726562-14.253907-96.207031-39.824219-2.625-2.632813-5.078125-5.375-7.457031-8.167969h-.375v-.441406c-24.460938-28.945313-35.699219-66.808594-30.988281-104.414063 4.710937-37.605469 24.941406-71.527343 55.789062-93.542969l-.082031-.113281c.527344-.375 1.105469-.703125 1.601562-1.074219.390626-.277343.742188-.605468 1.144532-.878906l.054687.089844c4.566407-3.136719 9.320313-5.984375 14.242188-8.527344l-1.449219-4.800781c-.84375-2.820313-.074219-5.871094 2.007812-7.953125l56-56c3.125-3.121094 8.1875-3.121094 11.3125 0l56 56c2.078126 2.082031 2.851563 5.132812 2.007813 7.953125l-1.441406 4.800781c4.917969 2.535156 9.679687 5.371094 14.25 8.496094v-.058594c.429687.296875.796875.625 1.246093.921875.449219.296875 1.046876.679688 1.550782 1.039063v.0625c40.722656 29.1875 62.097656 78.398437 55.632812 128.082031zm0 0" data-original="#000000" class="active-path" data-old_color="#00bacf" fill="#00bacf"/><path d="m292.648438 125.664062c-3.570313-2.527343-7.277344-4.851562-11.105469-6.96875l-17.542969 58.480469v159.902344c5.5-1.957031 10.847656-4.320313 16-7.070313v-154.007812c0-4.417969 3.582031-8 8-8h42.121094c-8.9375-16.898438-21.785156-31.414062-37.472656-42.335938zm0 0" data-original="#000000" class="active-path" data-old_color="#00bacf" fill="#00bacf"/></g> </svg>
