<svg width="512" height="394" xmlns="http://www.w3.org/2000/svg">

 <g>
  <title>background</title>
  <rect fill="none" id="canvas_background" height="396" width="514" y="-1" x="-1"/>
 </g>
 <g>
  <title>Layer 1</title>
  <g id="svg_1">
   <g id="svg_2">
    <g id="svg_3">
     <g id="svg_4">
      <path id="svg_5" fill="#ffa000" class="active-path" d="m411.429,383.086c0,5.554 4.503,10.057 10.057,10.057l80.457,0c2.667,0 5.225,-1.06 7.112,-2.946c1.886,-1.886 2.946,-4.444 2.946,-7.112l0,-8.229l-100.572,0l0,8.23z"/>
      <path id="svg_6" fill="#ffa000" class="active-path" d="m501.943,210.286l-80.457,0c-5.554,0 -10.057,4.503 -10.057,10.057l0,8.229l100.571,0l0,-8.229c0,-5.554 -4.503,-10.057 -10.057,-10.057z"/>
      <polygon id="svg_7" fill="#ffa000" class="active-path" points="210.28599548339844,274.2859801979065 310.85699462890625,274.2859801979065 393.14300537109375,274.2859801979065 393.14300537109375,246.8580016822815 210.28599548339844,246.8580016822815 "/>
      <path id="svg_8" fill="#ffa000" class="active-path" d="m420.571,27.429c0,-15.148 -12.28,-27.429 -27.429,-27.429l-274.285,0c-15.148,0 -27.429,12.28 -27.429,27.429l0,54.857l77.586,0c22.783,0.025 41.246,18.488 41.271,41.271l0,105.015l182.857,0l0,-8.229c0.051,-15.261 12.176,-27.741 27.429,-28.233l0,-164.681z"/>
      <rect id="svg_9" fill="#ffa000" class="active-path" height="36.571" width="91.429" y="292.572" x="210.286"/>
      <rect id="svg_10" fill="#ffa000" class="active-path" height="109.714" width="100.571" y="246.858" x="411.429"/>
      <path id="svg_11" fill="#ffa000" class="active-path" d="m0,370.158c0.01,12.69 10.295,22.975 22.985,22.985l146.03,0c12.69,-0.01 22.975,-10.295 22.985,-22.985l0,-4.443l-192,0l0,4.443z"/>
      <polygon id="svg_12" fill="#ffa000" class="active-path" points="0,347.42898556900025 192,347.42898556900025 192,338.2859801979065 192,283.42898556900025 192,146.28601071548462 0,146.28601071548462 "/>
      <path id="svg_13" fill="#ffa000" class="active-path" d="m169.015,100.572l-146.03,0c-12.69,0.01 -22.975,10.295 -22.985,22.985l0,4.443l192,0l0,-4.443c-0.01,-12.69 -10.295,-22.975 -22.985,-22.985z"/>
      <path id="svg_14" fill="#ffa000" class="active-path" d="m347.429,347.429l-137.143,0l0,18.286l146.286,0l0,-9.143c-0.001,-5.049 -4.094,-9.143 -9.143,-9.143z"/>
     </g>
    </g>
   </g>
  </g>
 </g>
</svg>