<?xml version="1.0"?>
<svg xmlns="http://www.w3.org/2000/svg" height="512px" viewBox="0 -4 438 438" width="512px" class=""><g><path d="m236.78125 201.652344c2.6875 0 4.867188-2.179688 4.867188-4.867188s-2.179688-4.867187-4.867188-4.867187-4.867188 2.179687-4.867188 4.867187c.003907 2.6875 2.179688 4.867188 4.867188 4.867188zm0 0" data-original="#000000" class="active-path" data-old_color="#55b700" fill="#55b700"/><path d="m76.851562 110.921875 62.699219 24.398437 62.699219-24.398437c.277344-.128906.558594-.242187.847656-.332031l13.777344-5.359375-77.324219-28.425781-77.324219 28.421874 13.773438 5.363282c.289062.089844.574219.203125.851562.332031zm0 0" data-original="#000000" class="active-path" data-old_color="#55b700" fill="#55b700"/><path d="m139.566406 149.832031c-.863281 0-1.71875-.160156-2.523437-.476562l-56.042969-21.820313v27.558594c37.914062 13.007812 79.085938 13.007812 117 0v-27.558594l-55.984375 21.820313c-.777344.316406-1.609375.476562-2.449219.476562zm0 0" data-original="#000000" class="active-path" data-old_color="#55b700" fill="#55b700"/><path d="m0 272h438v-272h-438zm272.875-180h41.824219c3.867187 0 7 3.132812 7 7s-3.132813 7-7 7h-41.824219c-3.867188 0-7-3.132812-7-7s3.132812-7 7-7zm0 27h122.683594c3.863281 0 7 3.132812 7 7s-3.136719 7-7 7h-122.683594c-3.867188 0-7-3.132812-7-7s3.132812-7 7-7zm0 26h122.683594c3.863281 0 7 3.132812 7 7s-3.136719 7-7 7h-122.683594c-3.867188 0-7-3.132812-7-7s3.132812-7 7-7zm0 27h122.683594c3.863281 0 7 3.132812 7 7s-3.136719 7-7 7h-122.683594c-3.867188 0-7-3.132812-7-7s3.132812-7 7-7zm-232.839844-73.53125 97.109375-35.691406c1.5625-.574219 3.28125-.574219 4.84375 0l97.125 35.691406c2.742188 1 4.582031 3.585938 4.628907 6.5 0 .125.066406.246094.0625.367188.011718.160156.199218.324218.199218.488281v73.40625c7.191406 2.851562 11.898438 9.816406 11.863282 17.550781.046874 9.527344-7.003907 17.597656-16.449219 18.828125-9.445313 1.230469-18.332031-4.765625-20.722657-13.984375-2.394531-9.222656 2.453126-18.78125 11.304688-22.300781v-64.046875l-18 6.808594v69.394531c.039062 2.90625-1.746094 5.527343-4.464844 6.558593-43.863281 16.355469-92.148437 16.355469-136.011718 0-2.730469-1.023437-4.535157-3.640624-4.523438-6.558593v-69.394531l-27.0625-10.523438c-2.722656-1.042969-4.511719-3.664062-4.488281-6.582031.019531-2.914063 1.851562-5.507813 4.589843-6.511719zm0 0" data-original="#000000" class="active-path" data-old_color="#55b700" fill="#55b700"/><path d="m81 169.824219v16.726562c37.914062 13.007813 79.085938 13.007813 117 0v-16.726562c-38.070312 12.042969-78.929688 12.042969-117 0zm0 0" data-original="#000000" class="active-path" data-old_color="#55b700" fill="#55b700"/><path d="m0 286h438v61h-438zm0 0" data-original="#000000" class="active-path" data-old_color="#55b700" fill="#55b700"/><path d="m332.53125 416h-43.253906l-15.585938-55h-109.382812l-15.585938 55h-43.253906c-3.867188 0-7 3.132812-7 7s3.132812 7 7 7h227.0625c3.867188 0 7-3.132812 7-7s-3.132812-7-7-7zm0 0" data-original="#000000" class="active-path" data-old_color="#55b700" fill="#55b700"/></g> </svg>
