<svg xmlns="http://www.w3.org/2000/svg" width="431.136" height="134.623" viewBox="0 0 431.136 134.623">
  <g id="Group_1" data-name="Group 1" transform="translate(-82.072 -230.326)">
    <rect id="Rectangle_1" data-name="Rectangle 1" width="134.555" height="134.555" rx="12" transform="translate(82.072 230.394)" fill="#97b70a"/>
    <rect id="Rectangle_2" data-name="Rectangle 2" width="134.555" height="134.555" rx="12" transform="translate(230.118 230.394)" fill="#16abe7"/>
    <rect id="Rectangle_3" data-name="Rectangle 3" width="134.555" height="134.555" rx="12" transform="translate(378.504 230.326)" fill="#ee6f08"/>
    <path id="Path_1" data-name="Path 1" d="M194.035,267.041,180.9,328.166H158.38l-9.07-39.933H149l-8.6,39.933H117.409l-12.745-61.125H124.29l6.568,39.057h.312l8.68-39.057h20.094l8.445,39.057h.312l6.647-39.057Z" fill="#fff"/>
    <path id="Path_2" data-name="Path 2" d="M322.377,308.725q0,7.8-4.378,12.873-6.646,7.707-22.361,7.707a103.638,103.638,0,0,1-10.869-.614,71.255,71.255,0,0,1-11.728-2.276V310.476a53.991,53.991,0,0,0,8.757,2.934,41.792,41.792,0,0,0,10.086,1.182q5.082,0,7.233-1.138a3.482,3.482,0,0,0,2.15-3.152q0-2.365-2.893-3.5-.939-.35-6.021-1.576-9.07-2.1-12.9-4.729-7.037-4.815-7.037-14.711a17.228,17.228,0,0,1,5.395-13.136Q285,265.9,300.64,265.9a80.35,80.35,0,0,1,8.914.482A81.758,81.758,0,0,1,318.78,268v15.763a37.094,37.094,0,0,0-6.568-2.1,43.57,43.57,0,0,0-9.694-1.051,23.458,23.458,0,0,0-6.021.526q-2.972.877-2.971,3.59,0,2.278,3.049,3.328a26.535,26.535,0,0,0,3.753.963,99.389,99.389,0,0,1,10.008,2.54,18.728,18.728,0,0,1,8.444,5.6Q322.377,301.545,322.377,308.725Z" fill="#fff"/>
    <path id="Path_3" data-name="Path 3" d="M473.656,288.934a21.121,21.121,0,0,1-5.238,14.45q-6.333,7.18-18.062,7.18H438.862v17.69H417.907v-61.3h32.058q11.65,0,17.984,6.743A21.314,21.314,0,0,1,473.656,288.934Zm-21.11-.175a7.076,7.076,0,0,0-1.8-5.166q-2.422-2.452-7.9-2.453h-4.535v15.238h4.613a13.955,13.955,0,0,0,5.708-.964Q452.545,293.576,452.546,288.759Z" fill="#fff"/>
    <path id="Path_4" data-name="Path 4" d="M352.674,230.394H242.118a12.035,12.035,0,0,0-12,12v90.98S225.509,247.3,269.762,240a64.583,64.583,0,0,1,47.622,11.326,111.611,111.611,0,0,1,47.29,85.97v-94.9A12.035,12.035,0,0,0,352.674,230.394Z" fill="#53bee5"/>
    <path id="Path_5" data-name="Path 5" d="M513.06,253.783c0,39.315,4.751,94.766-39.5,102.071a64.585,64.585,0,0,1-47.622-11.326A111.605,111.605,0,0,1,378.5,253.144v99.737a12.035,12.035,0,0,0,12,12H501.06a12.035,12.035,0,0,0,12-12Z" fill="#f28a3f"/>
    <path id="Path_6" data-name="Path 6" d="M94.072,364.949H204.627a12.035,12.035,0,0,0,12-12V257.982a111.605,111.605,0,0,1-47.289,85.97,64.59,64.59,0,0,1-47.622,11.327c-32.74-5.4-38.844-37.163-39.644-69.242v66.912A12.035,12.035,0,0,0,94.072,364.949Z" fill="#c3cd47"/>
  </g>
</svg>
