<svg xmlns="http://www.w3.org/2000/svg"
        xmlns:xlink="http://www.w3.org/1999/xlink"
        width="1749px" height="1070px">
    <defs>
        <linearGradient id="PSgrad_0" x1="0%" x2="0%" y1="100%" y2="0%">
            <stop offset="0%" stop-color="rgb(255,119,0)" stop-opacity="1" />
            <stop offset="100%" stop-color="rgb(255,204,0)" stop-opacity="1" />
        </linearGradient>
        <linearGradient id="PSgrad_1" x1="0%" x2="0%" y1="100%" y2="0%">
            <stop offset="0%" stop-color="rgb(0,185,207)" stop-opacity="1" />
            <stop offset="100%" stop-color="rgb(0,228,255)" stop-opacity="1" />
        </linearGradient>
        <linearGradient id="PSgrad_2" x1="0%" x2="0%" y1="100%" y2="0%">
            <stop offset="0%" stop-color="rgb(93,198,5)" stop-opacity="1" />
            <stop offset="100%" stop-color="rgb(17,244,103)" stop-opacity="1" />
        </linearGradient>

    </defs>
    <path fill-rule="evenodd"  fill="url(#PSgrad_0)"
          d="M1199.000,1026.000 C1211.150,1026.000 1221.000,1035.850 1221.000,1048.000 C1221.000,1060.150 1211.150,1070.000 1199.000,1070.000 C1186.850,1070.000 1177.000,1060.150 1177.000,1048.000 C1177.000,1035.850 1186.850,1026.000 1199.000,1026.000 Z"/>
    <path fill-rule="evenodd"  fill="url(#PSgrad_1)"
          d="M1540.000,278.000 C1554.912,278.000 1567.000,290.088 1567.000,305.000 C1567.000,319.912 1554.912,332.000 1540.000,332.000 C1525.088,332.000 1513.000,319.912 1513.000,305.000 C1513.000,290.088 1525.088,278.000 1540.000,278.000 Z"/>
    <path fill-rule="evenodd"  fill="url(#PSgrad_2)"
          d="M1651.000,388.000 C1705.124,388.000 1749.000,431.876 1749.000,486.000 C1749.000,540.124 1705.124,584.000 1651.000,584.000 C1596.876,584.000 1553.000,540.124 1553.000,486.000 C1553.000,431.876 1596.876,388.000 1651.000,388.000 Z"/>
    <path fill-rule="evenodd"  fill="url(#PSgrad_1)"
          d="M79.500,747.000 C123.407,747.000 159.000,782.593 159.000,826.500 C159.000,870.407 123.407,906.000 79.500,906.000 C35.593,906.000 0.000,870.407 0.000,826.500 C0.000,782.593 35.593,747.000 79.500,747.000 Z"/>
    <path fill-rule="evenodd"  fill="url(#PSgrad_0)"
          d="M230.500,-0.000 C256.734,-0.000 278.000,21.266 278.000,47.500 C278.000,73.734 256.734,95.000 230.500,95.000 C204.266,95.000 183.000,73.734 183.000,47.500 C183.000,21.266 204.266,-0.000 230.500,-0.000 Z"/>
</svg>
