<svg xmlns="http://www.w3.org/2000/svg"
        width="365px" height="199px">
    <path fill-rule="evenodd"  fill="rgb(220, 232, 248)"
          d="M356.000,199.000 C356.000,199.000 329.623,168.109 305.000,159.997 C259.984,145.166 238.270,186.028 185.000,167.998 C127.337,148.479 138.288,70.610 76.000,65.998 C33.913,62.881 0.823,104.195 0.823,104.195 L1.000,199.000 L356.000,199.000 Z"/>
    <path fill-rule="evenodd"  opacity="0.569" fill="rgb(220, 232, 248)"
          d="M365.000,199.000 C365.000,199.000 340.649,148.095 310.000,137.997 C264.984,123.167 246.270,158.028 193.000,139.998 C135.337,120.480 117.288,5.610 55.000,0.997 C25.960,-1.153 0.491,45.400 0.491,45.400 L1.000,199.000 L365.000,199.000 Z"/>
</svg>
