<svg xmlns="http://www.w3.org/2000/svg"
        width="366px" height="230px">
    <path fill-rule="evenodd"  fill="rgb(234, 242, 252)"
          d="M364.973,221.528 C364.973,221.528 339.017,172.193 302.000,159.997 C256.984,145.167 235.270,186.028 182.000,167.997 C124.337,148.479 135.288,70.610 73.000,65.997 C34.531,63.149 0.910,99.288 0.910,99.288 L1.000,230.000 L365.000,230.000 L364.973,221.528 Z"/>
    <path fill-rule="evenodd"  opacity="0.569" fill="rgb(234, 242, 252)"
          d="M365.034,202.894 C365.034,202.894 339.940,148.850 307.000,137.998 C261.984,123.168 243.270,158.028 190.000,139.997 C132.337,120.480 114.288,5.610 52.000,0.997 C26.342,-0.902 0.989,36.693 0.989,36.693 L1.000,230.000 L365.000,230.000 L365.034,202.894 Z"/>
</svg>
