<svg width="1919.9999999999998" height="884" xmlns="http://www.w3.org/2000/svg">
 <metadata id="metadata3783">image/svg+xml</metadata>

 <g id="g3762">
  <title>background</title>
  <rect x="-1" y="-1" width="1922" height="886" id="canvas_background" fill="none"/>
 </g>
 <g id="g3777">
  <title>Layer 1</title>
  <path fill-rule="evenodd" fill="rgb(0, 186, 207)" d="m745.49994,-15.997l1032.44,0c14.888,0 169.917,-28.881 169.917,-14l32,494.995c0,14.88 -6.11201,109 -21,109c0,0 -91.021,188.684 -292,273.999c-136.69101,58.027 -347.24901,48.691 -525.09401,-24.262c-191.40599,-78.519 -92.986,-364.867 -167.131,-465.224c-61.10199,-82.701 -91.17999,-66.18 -186.00099,-105.079c-166.17,-68.17 -124,-252.365 -124,-252.365c0,-14.88 65.98199,-17.064 80.869,-17.064z" id="svg_1"/>
  <path opacity="0.231" fill="#58e2f2" fill-rule="evenodd" d="m873.67894,-20.99l925.22896,0c13.341,0 152.272,-20.585 152.272,-9.978l28.677,352.816c0,10.605 -25.397,86.923 -18.819,77.692c0.826,-1.16 98.446,-15.881 -31.181,131.458c-142.8063,162.31775 -251.8831,278.37641 -345.4242,342.32794c-89.6534,14.67245 -95.7263,11.06786 -148.5302,12.24435c-18.8045,-1.26415 -38.2266,-1.46094 -57.2385,-3.372c-58.085,-5.83862 -114.6081,-16.34585 -156.3171,-30.57215c-111.6329,-154.70902 -185.2444,-458.01317 -234.48996,-515.62914c-52.011,-60.85 -59.75,-86.419 -145,-113.999c-149.096,-48.236 -131,-257.995 -131,-257.995c0,-10.606 148.481,15.007 161.822,15.007z" id="svg_2"/>
  <path opacity="0.231" fill="#58e2f2" fill-rule="evenodd" d="m831.85694,-53.997l946.08296,38c14.888,0 169.917,-28.881 169.917,-14l113,337.995c0,14.88 -91.118,180.578 -106,180.999c-180.741,5.127 -203.616,208.973 -415.788,287.569c-174.708,64.716 -358.254,-45.658 -374.269,-123.969c-30.2313,-147.81859 -96.4222,-142.28614 -160.3166,-197.64141c-1.2856,-10.51907 -2.4209,-16.89074 -3.8841,-25.2218c-2.26519,-12.89707 -2.78445,-23.74962 -15.83859,-54.25237c-3.1162,-9.92234 -24.77526,-37.4516 -44.18533,-56.24941c-9.49303,-9.19359 -22.22219,-17.29054 -30.14834,-21.99469c-40.35404,-89.55021 -107.74278,-207.55715 -250.33888,-256.05598c0.88305,-11.22254 1.44835,-27.4902 4.31544,-41.12448c1.86689,-8.87791 -9.41213,-15.78921 -15.77603,-17.15618c-83.364,-17.906 113.28746,-89.02268 114.22946,-89.89768c10.9,-10.13 54.112,53 69.00001,53z" id="svg_3"/>
  <path fill-rule="evenodd" opacity="0.231" fill="rgb(88, 226, 242)" d="m923.79193,-70.744l1032.196,0c14.884,0 169.876,-28.886 169.876,-14.002l31.993,495.092c0,14.883 -28.333,121.977 -20.995,109.022c0.921,-1.627 -42.70699,-382.629 -245.005,-281.37c-48.593,24.323 -355.856,607.891 -486,594c-206.89,-22.082 -175.253,-378.81 -246,-484.001c-57.348,-85.268 -233.895,-221.297 -329,-259.999c-166.333,-67.688 12.084,-141.675 12.084,-141.675c0,-14.883 65.967,-17.067 80.851,-17.067z" id="svg_4"/>
  <path fill-rule="evenodd" opacity="0.231" fill="rgb(88, 226, 242)" d="m932.76393,-27.001l832.31501,0c12.00199,0 136.98099,-11.073 136.98099,-5.367l25.79701,189.779c0,5.706 -22.24601,47.395 -16.92901,41.792c86.393,-91.065 48.878,123.154 -84.07099,228.794c-110.14201,87.52 -214.684,152.202 -347,80.001c-138.005,-75.305 -283.772,-307.991 -342,-347.001c-47.95101,-32.123 -35.82401,-51.449 -99,-96.999c-110.81101,-79.89 -141,-109.996 -141,-109.996c0,-5.704 22.90499,18.997 34.907,18.997l-0.00001,0z" id="svg_5"/>
  <path fill-rule="evenodd" opacity="0.231" fill="rgb(88, 226, 242)" d="m932.76393,-29.771l832.31501,0c12.00199,0 136.98099,-6.688 136.98099,-3.242l25.79701,114.629c0,3.447 -94.59401,-4.347 -88,-3.619c93.53099,10.334 -75.36,-20.936 -173,115.001c-78.204,108.877 -49.962,302.506 -194.29601,299.587c-161.76099,-3.271 -253.64599,-417.818 -310.46299,-444.202c-46.916,-21.785 -124.14201,-35.849 -200.83101,-44.81c-134.12299,-15.669 -93.69799,-29.392 -93.69799,-29.392c0,-3.446 53.19299,-3.952 65.19499,-3.952z" id="svg_6"/>
 </g>
</svg>