<svg xmlns="http://www.w3.org/2000/svg"
        width="365px" height="228px">
    <path fill-rule="evenodd"  opacity="0.569" fill="rgb(234, 242, 252)"
          d="M0.000,228.000 L0.000,-0.000 C0.000,-0.000 5.833,-0.012 7.379,0.014 C23.098,0.279 112.487,4.362 148.823,62.502 C180.611,113.366 189.395,189.337 252.000,184.998 C302.778,181.478 364.070,70.530 364.070,70.530 L364.000,228.000 L0.000,228.000 Z"/>
    <path fill-rule="evenodd"  fill="rgb(234, 242, 252)"
          d="M0.000,40.000 C0.000,40.000 95.746,21.141 147.463,91.556 C184.226,141.612 195.712,191.610 258.000,186.998 C306.260,183.424 363.973,134.907 363.973,134.907 L364.000,228.000 L0.000,228.000 L0.000,40.000 Z"/>
</svg>
