<svg width="364" height="234" xmlns="http://www.w3.org/2000/svg">

  <rect fill="none" id="canvas_background" height="236" width="366" y="-1" x="-1"/>
  <path id="svg_1" d="m-3,233.997c0,0 13.721,-58.117 68,-75.999c45.016,-14.831 59.73,40.03 113,22c57.663,-19.518 77.41,-94.157 120,-117.001c47.986,-25.737 66,-20 66,-20l-1,190.01l-364.008,0l-1.992,0.99z" fill="rgb(234, 242, 252)" fill-rule="evenodd"/>
  <path id="svg_2" d="m-7,226.998c0,0 10.721,-73.118 65,-91.001c45.016,-14.83 67.73,23.032 121,5.001c57.663,-19.518 89.246,-111.068 134,-130.001c42.715,-18.069 50,-7.999 50,-7.999l0,230.009l-364.008,0l-5.992,-6.009z" fill="rgb(234, 242, 252)" opacity="0.569" fill-rule="evenodd"/>

</svg>
