<svg xmlns="http://www.w3.org/2000/svg"
        xmlns:xlink="http://www.w3.org/1999/xlink"
        width="1994px" height="661px">
    <path fill-rule="evenodd"  opacity="0.549" fill="rgb(247, 245, 248)"
          d="M1994.000,155.998 C1994.000,155.998 1767.336,85.097 1475.175,85.982 C1194.968,86.831 993.900,194.715 709.000,205.997 C397.567,218.331 0.000,-0.002 0.000,-0.002 L14.000,550.997 C14.000,550.997 280.617,661.005 601.000,647.998 C908.413,635.516 1099.907,532.769 1385.000,537.998 C1614.135,542.200 1983.977,631.793 1988.000,630.998 L1994.000,155.998 Z"/>
    <path fill-rule="evenodd"  fill="rgb(247, 245, 248)"
          d="M1994.000,264.998 C1994.000,264.998 1767.162,107.998 1475.000,107.998 C1194.723,107.998 989.887,255.554 705.000,266.996 C393.574,279.506 19.000,77.997 19.000,77.997 L15.000,515.997 C15.000,515.997 299.617,634.006 620.000,620.998 C927.413,608.516 1181.859,555.997 1467.000,555.997 C1717.399,555.997 1994.000,660.997 1994.000,660.997 L1994.000,264.998 Z"/>
</svg>
