<svg xmlns="http://www.w3.org/2000/svg"
        width="365px" height="201px">
    <path fill-rule="evenodd"  fill="rgb(220, 232, 248)"
          d="M12.000,201.000 C12.000,201.000 39.427,165.752 66.000,156.998 C111.016,142.167 125.730,197.028 179.000,178.997 C236.663,159.480 256.410,84.842 299.000,61.998 C346.986,36.260 365.000,41.998 365.000,41.998 L365.000,201.000 L12.000,201.000 Z"/>
    <path fill-rule="evenodd"  opacity="0.569" fill="rgb(220, 232, 248)"
          d="M0.957,199.920 C0.957,199.920 26.048,145.854 59.000,134.997 C104.016,120.167 126.730,158.029 180.000,139.997 C237.663,120.480 269.246,28.929 314.000,9.997 C350.776,-5.560 365.000,2.000 365.000,2.000 L365.000,201.000 L1.000,201.000 L0.957,199.920 Z"/>
</svg>
