<svg width="1920" height="621" xmlns="http://www.w3.org/2000/svg">
 <defs>
  <linearGradient y2="0%" y1="100%" x2="0%" x1="0%" id="PSgrad_0">
   <stop stop-color="rgb(255,119,0)" offset="0%"/>
   <stop stop-color="rgb(255,204,0)" offset="100%"/>
  </linearGradient>
  <linearGradient y2="0%" y1="100%" x2="0%" x1="0%" id="PSgrad_1">
   <stop stop-color="rgb(93,198,5)" offset="0%"/>
   <stop stop-color="rgb(17,244,103)" offset="100%"/>
  </linearGradient>
  <linearGradient y2="0%" y1="100%" x2="0%" x1="0%" id="PSgrad_2">
   <stop stop-color="rgb(0,185,207)" offset="0%"/>
   <stop stop-color="rgb(0,228,255)" offset="100%"/>
  </linearGradient>
 </defs>
 <g>
  <title>background</title>
  <rect fill="none" id="canvas_background" height="623" width="1922" y="-1" x="-1"/>
 </g>
 <g>
  <title>Layer 1</title>
  <path id="svg_1" d="m414.642862,317c47.22,0 85.5,38.28 85.5,85.5c0,47.22 -38.28,85.5 -85.5,85.5c-47.22,0 -85.5,-38.28 -85.5,-85.5c0,-47.22 38.28,-85.5 85.5,-85.5z" fill="url(#PSgrad_0)" fill-rule="evenodd"/>
  <path id="svg_2" d="m207.642862,170c11.322,0 20.5,9.178 20.5,20.5c0,11.322 -9.178,20.5 -20.5,20.5c-11.322,0 -20.5,-9.178 -20.5,-20.5c0,-11.322 9.178,-20.5 20.5,-20.5z" fill="url(#PSgrad_1)" fill-rule="evenodd"/>
  <path id="svg_3" d="m1859.142862,0c44.183,0 80,35.817 80,80c0,44.183 -35.817,80 -80,80c-44.183,0 -80,-35.817 -80,-80c0,-44.183 35.817,-80 80,-80z" fill="url(#PSgrad_2)" fill-rule="evenodd"/>
  <path id="svg_4" d="m1752.142862,583c10.493,0 19,8.507 19,19c0,10.493 -8.507,19 -19,19c-10.493,0 -19,-8.507 -19,-19c0,-10.493 8.507,-19 19,-19z" fill="url(#PSgrad_0)" fill-rule="evenodd"/>
  <path id="svg_5" d="m1508.642862,228c25.129,0 45.5,20.371 45.5,45.5c0,25.129 -20.371,45.5 -45.5,45.5c-25.129,0 -45.5,-20.371 -45.5,-45.5c0,-25.129 20.371,-45.5 45.5,-45.5z" fill="url(#PSgrad_1)" fill-rule="evenodd"/>
  <path id="svg_6" d="m1137.642862,310c12.426,0 22.5,10.074 22.5,22.5c0,12.426 -10.074,22.5 -22.5,22.5c-12.426,0 -22.5,-10.074 -22.5,-22.5c0,-12.426 10.074,-22.5 22.5,-22.5z" fill="url(#PSgrad_2)" fill-rule="evenodd"/>
 </g>
</svg>