<?xml version="1.0"?>
<svg xmlns="http://www.w3.org/2000/svg" height="512px" viewBox="0 0 448.736 448.736" width="512px" class=""><g><path d="m445.421875 24h-12.6875c-4.417969 0-8-3.582031-8-8v-12.6875l-16 16v20.6875h20.6875zm0 0" data-original="#000000" class="active-path" data-old_color="#55b700" fill="#55b700"/><path d="m240.886719 196.535156c-4.875-2.9375-10.457031-4.507812-16.152344-4.535156-17.671875 0-32 14.328125-32 32 0 17.675781 14.328125 32 32 32 17.675781 0 32-14.324219 32-32-.027344-5.695312-1.59375-11.273438-4.535156-16.152344l-12.0625 12.066406c.378906 1.328126.578125 2.703126.597656 4.085938 0 8.835938-7.164063 16-16 16s-16-7.164062-16-16 7.164063-16 16-16c1.382813.019531 2.757813.222656 4.089844.601562zm0 0" data-original="#000000" class="active-path" data-old_color="#55b700" fill="#55b700"/><path d="m388.574219 71.472656-33.925781 33.929688c64.574218 70.71875 60.847656 180.066406-8.390626 246.230468-69.234374 66.160157-178.640624 64.917969-246.355468-2.796874-67.71875-67.71875-68.960938-177.121094-2.796875-246.359376 66.164062-69.238281 175.507812-72.960937 246.230469-8.386718l33.925781-33.929688c-89.546875-83.378906-229.386719-79.636718-314.347657 8.410156-84.964843 88.046876-83.714843 227.929688 2.800782 314.449219 86.519531 86.519531 226.40625 87.765625 314.453125 2.804688 88.046875-84.964844 91.785156-224.804688 8.40625-314.351563zm0 0" data-original="#000000" class="active-path" data-old_color="#55b700" fill="#55b700"/><path d="m224.734375 128c-45.171875-.101562-84.328125 31.234375-94.136719 75.328125-9.804687 44.09375 12.382813 89.074219 53.339844 108.125 40.953125 19.054687 89.652344 7.050781 117.058594-28.851563 27.410156-35.90625 26.152344-86.042968-3.019532-120.527343l-34.160156 34.160156c14.515625 20.398437 10.976563 48.519531-8.140625 64.6875-19.117187 16.164063-47.4375 14.984375-65.140625-2.722656-17.703125-17.703125-18.886718-46.019531-2.71875-65.140625 16.167969-19.117188 44.289063-22.65625 64.6875-8.136719l34.160156-34.160156c-17.285156-14.699219-39.238281-22.769531-61.929687-22.761719zm0 0" data-original="#000000" class="active-path" data-old_color="#55b700" fill="#55b700"/><path d="m224.734375 64c-75.929687-.289062-141.691406 52.632812-157.644531 126.867188-15.957032 74.238281 22.257812 149.507812 91.605468 180.4375 69.347657 30.929687 150.878907 9.070312 195.453126-52.402344 44.574218-61.472656 40.011718-145.761719-10.941407-202.0625l-33.929687 33.929687c39.628906 45.71875 35.945312 114.601563-8.332032 155.832031-44.277343 41.230469-113.25 40.003907-156.03125-2.777343s-44.011718-111.753907-2.78125-156.03125c41.230469-44.277344 110.117188-47.964844 155.835938-8.335938l33.964844-33.929687c-29.3125-26.710938-67.539063-41.519532-107.199219-41.527344zm0 0" data-original="#000000" class="active-path" data-old_color="#55b700" fill="#55b700"/><path d="m224.734375 232v-8h-.007813zm0 0" data-original="#000000" class="active-path" data-old_color="#55b700" fill="#55b700"/></g> </svg>
