<?xml version="1.0"?>
<svg xmlns="http://www.w3.org/2000/svg" height="512px" viewBox="0 0 448.24823 448" width="512px" class=""><g><path d="m208.125 181.90625c6.441406-2.15625 13.472656-1.691406 19.574219 1.289062 2.578125 1.296876 5.597656 1.394532 8.257812.269532l4.167969-3.199219v-28.023437h-32zm0 0" class="active-path" fill="#00BACF"/><path d="m176.492188 88.347656c5.125-1.761718 10.34375-3.238281 15.632812-4.417968v-19.6875c0-17.671876 14.324219-32 32-32 17.671875 0 32 14.328124 32 32v19.703124c5.289062 1.175782 10.507812 2.644532 15.632812 4.402344l2.527344-6.113281 28.109375-67.871094c-50.453125-18.984375-106.085937-18.984375-156.542969 0l28.113282 67.871094zm0 0" class="active-path" fill="#00BACF"/><path d="m208.125 270.355469 12.941406 25.886719h6.113282l12.945312-25.886719v-71.5625c-6.429688 2.292969-13.515625 1.820312-19.585938-1.292969-2.78125-1.386719-6.054687-1.386719-8.839843 0-.550781.273438-1.136719.484375-1.734375.628906l-1.839844.441406zm0 0" class="active-path" fill="#00BACF"/><path d="m240.125 64.242188c0-8.835938-7.164062-16-16-16s-16 7.164062-16 16v72h32zm0 0" class="active-path" fill="#00BACF"/><path d="m212.429688 382.25c-1.800782 3.949219-1.433594 8.546875.964843 12.160156 2.464844 3.484375 6.464844 5.554688 10.730469 5.554688s8.265625-2.070313 10.726562-5.554688c2.402344-3.613281 2.769532-8.210937.96875-12.160156l-11.695312-26.3125zm0 0" class="active-path" fill="#00BACF"/><path d="m353.898438 161.84375 73.984374-30.640625c-22.25-49.113281-61.59375-88.46875-110.703124-110.730469l-30.65625 73.992188c29.511718 14.082031 53.296874 37.867187 67.375 67.378906zm0 0" class="active-path" fill="#00BACF"/><path d="m273.109375 342.5c47.828125-19.8125 79.015625-66.488281 79.015625-118.257812 0-51.769532-31.1875-98.445313-79.015625-118.257813-5.527344-2.230469-11.203125-4.078125-16.984375-5.527344v35.785157h16v16h-16v120c.011719 1.238281-.261719 2.460937-.800781 3.574218l-16 32c-1.363281 2.726563-4.152344 4.441406-7.199219 4.425782h-16c-3.03125 0-5.804688-1.710938-7.160156-4.425782l-16-32c-.554688-1.109375-.84375-2.332031-.839844-3.574218v-120h-16v-16h16v-35.792969c-5.785156 1.449219-11.457031 3.300781-16.984375 5.535156-53.824219 22.195313-85.871094 77.9375-77.96875 135.617187 7.902344 57.679688 53.757813 102.75 111.566406 109.648438l8.113281-18.253906c1.285157-2.894532 4.148438-4.757813 7.3125-4.757813 3.164063 0 6.027344 1.863281 7.3125 4.757813l8.121094 18.261718c11.515625-1.382812 22.789063-4.332031 33.511719-8.757812zm0 0" class="active-path" fill="#00BACF"/><path d="m434.003906 145.96875-73.976562 30.640625c10.90625 30.820313 10.90625 64.445313 0 95.265625l73.976562 30.640625c18.992188-50.453125 18.992188-106.09375 0-156.546875zm0 0" class="active-path" fill="#00BACF"/><path d="m271.757812 360.136719c-8.269531 2.886719-16.785156 5.007812-25.441406 6.335937l4.121094 9.273438c5.375 12.078125 1.835938 26.265625-8.582031 34.40625-10.421875 8.136718-25.042969 8.136718-35.460938 0-10.417969-8.140625-13.957031-22.328125-8.582031-34.40625l4.128906-9.28125c-8.660156-1.328125-17.175781-3.445313-25.449218-6.328125l-2.527344 6.113281-28.113282 67.871094c50.457032 18.984375 106.089844 18.984375 156.542969 0l-28.109375-67.871094zm0 0" class="active-path" fill="#00BACF"/><path d="m88.21875 176.609375-73.976562-30.640625c-18.988282 50.453125-18.988282 106.09375 0 156.546875l73.976562-30.640625c-10.902344-30.820312-10.902344-64.445312 0-95.265625zm0 0" class="active-path" fill="#00BACF"/><path d="m94.347656 286.640625-73.984375 30.65625c22.253907 49.109375 61.597657 88.457031 110.703125 110.714844l30.640625-73.992188c-29.503906-14.085937-53.28125-37.871093-67.359375-67.378906zm0 0" class="active-path" fill="#00BACF"/><path d="m161.722656 94.464844-30.636718-73.992188c-49.109376 22.261719-88.460938 61.605469-110.722657 110.714844l73.984375 30.640625c14.085938-29.507813 37.867188-53.285156 67.375-67.363281zm-46.910156-47.199219 8.382812 13.601563c-4.953124 3.054687-9.800781 6.34375-14.398437 9.792968l-9.601563-12.800781c4.976563-3.753906 10.234376-7.320313 15.601563-10.625zm-54.046875 76.066406-13.601563-8.378906c11.257813-18.34375 25.320313-34.8125 41.679688-48.800781l10.398438 12.179687c-15.101563 12.882813-28.09375 28.054688-38.492188 44.964844zm0 0" class="active-path" fill="#00BACF"/><path d="m286.523438 354.019531 30.640624 73.992188c49.113282-22.253907 88.460938-61.601563 110.71875-110.714844l-73.984374-30.65625c-14.082032 29.511719-37.863282 53.296875-67.375 67.378906zm0 0" class="active-path" fill="#00BACF"/></g> </svg>
