<svg width="382" height="472" xmlns="http://www.w3.org/2000/svg">

 <g>
  <title>background</title>
  <rect fill="none" id="canvas_background" height="474" width="384" y="-1" x="-1"/>
 </g>
 <g>
  <title>Layer 1</title>
  <g id="svg_1">
   <path id="svg_2" fill="#00bacf" class="active-path" d="m99,123l-31.36328,0c-4.03906,0 -7.63672,3.71094 -7.63672,8.12891l0,69.8164c-0.03516,4.30469 3.33984,7.86328 7.63672,8.05469l21.48828,0c3.28906,-0.00781 6.13672,2.27734 6.83984,5.48828l4.91016,22.45313l22.36719,-25.57032c1.33203,-1.51171 3.2539,-2.3789 5.26953,-2.37109l47.26953,0c4.03906,0 7.21875,-3.63672 7.21875,-8.05469l0,-37.94531l-48.39844,0c-19.66015,0 -35.60156,-17.08203 -35.60156,-37.5l0,-2.5zm0,0"/>
   <path id="svg_3" fill="#00bacf" class="active-path" d="m134.60156,149l71.97657,0c2.0039,-0.06641 3.9375,0.75 5.28515,2.23047l42.06641,48.23437l9.91015,-45.19531c0.73047,-3.16406 3.59375,-5.375 6.83985,-5.26953l29.35937,0c11.9375,0 21.96094,-10.80078 21.96094,-23.5l0,-102.47266c0,-12.69531 -10.02344,-23.02734 -21.96094,-23.02734l-165.4375,0c-11.9375,0 -21.60156,10.33203 -21.60156,23.02734l0,102.47266c0,12.69922 9.66406,23.5 21.60156,23.5zm9.3086,-105l85.9414,0c3.86719,0 7,3.13281 7,7s-3.13281,7 -7,7l-85.9414,0c-3.86328,0 -7,-3.13281 -7,-7s3.13672,-7 7,-7zm0,45l143.23828,0c3.86328,0 7,3.13281 7,7s-3.13672,7 -7,7l-143.23828,0c-3.86328,0 -7,-3.13281 -7,-7s3.13672,-7 7,-7zm0,0"/>
   <path id="svg_4" fill="#00bacf" class="active-path" d="m0,346l382,0l0,52l-382,0l0,-52zm0,0"/>
   <path id="svg_5" fill="#00bacf" class="active-path" d="m382,95l-46,0l0,30.5c0,20.41797 -16.30469,37.5 -35.96094,37.5l-23.72656,0l-11.6875,53.21875c-0.57812,2.53906 -2.56641,4.51563 -5.10547,5.08203c-0.5625,0.16406 -1.14453,0.25391 -1.73437,0.27735c-2.00782,0.04296 -3.94141,-0.79297 -5.28125,-2.29297l-49.11329,-56.28516l-6.39062,0l0,37.94531c0,12.14063 -9.46094,22.05469 -21.21875,22.05469l-44.08984,0l-29.41797,33.62891c-1.74219,1.98047 -4.45313,2.8164 -7.01172,2.15625c-2.55469,-0.65625 -4.52735,-2.69532 -5.09766,-5.27344l-6.67187,-30.51172l-15.85547,0c-11.75781,0 -21.63672,-9.91406 -21.63672,-22.05469l0,-69.8164c0,-12.14063 9.87891,-22.12891 21.63672,-22.12891l31.36328,0l0,-14l-99,0l0,237l382,0l0,-237zm0,0"/>
   <path id="svg_6" fill="#00bacf" class="active-path" d="m251.21484,458l-13.01562,-46l-94.39844,0l-13.01562,46l-39.14063,0c-3.86719,0 -7,3.13281 -7,7s3.13281,7 7,7l198.71094,0c3.86719,0 7,-3.13281 7,-7s-3.13281,-7 -7,-7l-39.14063,0zm0,0"/>
  </g>
 </g>
</svg>