<svg width="49" height="49" viewBox="0 0 49 49" fill="none" xmlns="http://www.w3.org/2000/svg">
    <path d="M10.1633 29.4027L10.1609 29.3996C7.8223 26.2838 6.58826 22.5727 6.58826 18.6621C6.58826 8.78632 14.6246 0.75 24.5004 0.75C34.3762 0.75 42.4125 8.78632 42.4125 18.6621C42.4125 22.4056 41.2711 25.9869 39.1105 29.0255L39.099 29.0409L39.0584 29.095L39.055 29.1018C37.7601 30.8299 35.5457 33.8226 33.1476 37.0636C32.9364 37.3491 32.7237 37.6365 32.5102 37.9251C29.8441 41.5281 27.0335 45.3242 25.0498 47.9711C24.9276 48.1339 24.7471 48.2314 24.569 48.2476C24.4068 48.2623 24.2123 48.2137 24.0235 48.0116L24.0236 48.0116L24.0185 48.0062C23.972 47.9574 23.9276 47.9215 23.8954 47.8975L10.1633 29.4027ZM13.6824 18.6621C13.6824 24.6166 18.5459 29.4801 24.5004 29.4801C30.4548 29.4801 35.3183 24.6166 35.3183 18.6621C35.3183 12.7076 30.4548 7.84414 24.5004 7.84414C18.5459 7.84414 13.6824 12.7076 13.6824 18.6621Z" fill="#51B8CC" stroke="#51B8CC" stroke-width="1.5"/>
</svg>