<?xml version="1.0"?>
<svg xmlns="http://www.w3.org/2000/svg" height="512px" viewBox="0 -24 512 512" width="512px" class=""><g><path d="m352 320h112v-96h-112zm32-72c0-2.878906 1.542969-5.542969 4.054688-6.960938 2.503906-1.421874 5.585937-1.382812 8.066406.105469l40 24c2.398437 1.441407 3.878906 4.046875 3.878906 6.855469s-1.480469 5.414062-3.878906 6.855469l-40 24c-1.273438.769531-2.695313 1.144531-4.121094 1.144531-1.359375 0-2.71875-.34375-3.945312-1.039062-2.511719-1.417969-4.054688-4.082032-4.054688-6.960938zm0 0" data-original="#000000" class="active-path" data-old_color="#ffa000" fill="#ffa000"/><path d="m400 262.128906v19.742188l16.457031-9.871094zm0 0" data-original="#000000" class="active-path" data-old_color="#ffa000" fill="#ffa000"/><path d="m496 136h-176c-8.824219 0-16 7.175781-16 16v296c0 8.824219 7.175781 16 16 16h176c8.824219 0 16-7.175781 16-16v-296c0-8.824219-7.175781-16-16-16zm-64 296h-48v-16h48zm48-40c0 4.414062-3.574219 8-8 8h-128c-4.425781 0-8-3.585938-8-8v-16h16v8h112v-8h16zm-112-24v-16h16v16zm32 0v-16h16v16zm32 0v-16h16v16zm48-40c0 4.414062-3.574219 8-8 8h-128c-4.425781 0-8-3.585938-8-8v-112c0-4.414062 3.574219-8 8-8h128c4.425781 0 8 3.585938 8 8zm0-136h-16v-8h-112v8h-16v-16c0-4.414062 3.574219-8 8-8h128c4.425781 0 8 3.585938 8 8zm0 0" data-original="#000000" class="active-path" data-old_color="#ffa000" fill="#ffa000"/><path d="m0 280v48c0 8.824219 7.175781 16 16 16h272v-64zm280 40h-48v-16h48zm0 0" data-original="#000000" class="active-path" data-old_color="#ffa000" fill="#ffa000"/><path d="m264.007812 352-.007812 24h8v16h-32v-16h8v-24h-43.039062l-10.183594 56h93.222656v-56zm0 0" data-original="#000000" class="active-path" data-old_color="#ffa000" fill="#ffa000"/><path d="m168 416c-2.121094 0-4.160156.839844-5.65625 2.34375l-16 16c-1.503906 1.496094-2.34375 3.535156-2.34375 5.65625v16c0 4.414062 3.585938 8 8 8h136v-48zm0 0" data-original="#000000" class="active-path" data-old_color="#ffa000" fill="#ffa000"/><path d="m120 93.679688v44.640624l39.679688-22.320312zm0 0" data-original="#000000" class="active-path" data-old_color="#ffa000" fill="#ffa000"/><path d="m48 184h192v-136h-192zm56-104c0-2.839844 1.503906-5.472656 3.960938-6.902344 2.445312-1.433594 5.488281-1.457031 7.960937-.066406l64 36c2.519531 1.417969 4.078125 4.082031 4.078125 6.96875s-1.558594 5.550781-4.078125 6.976562l-64 36c-1.21875.679688-2.570313 1.023438-3.921875 1.023438-1.390625 0-2.792969-.359375-4.039062-1.097656-2.457032-1.429688-3.960938-4.0625-3.960938-6.902344zm0 0" data-original="#000000" class="active-path" data-old_color="#ffa000" fill="#ffa000"/><path d="m496 0h-480c-8.824219 0-16 7.175781-16 16v248h288v-120c0-13.230469 10.769531-24 24-24h200v-104c0-8.824219-7.175781-16-16-16zm-432 232h-32v-16h32zm32 8h-16v-32h16zm160-8h-144v-16h144zm0-40c0 4.414062-3.585938 8-8 8h-208c-4.414062 0-8-3.585938-8-8v-152c0-4.414062 3.585938-8 8-8h208c4.414062 0 8 3.585938 8 8zm80-104h-32v-16h32zm104 0h-88v-16h88zm32 16h-16v-56h-168v56h-16v-64c0-4.414062 3.574219-8 8-8h184c4.425781 0 8 3.585938 8 8zm0 0" data-original="#000000" class="active-path" data-old_color="#ffa000" fill="#ffa000"/></g> </svg>
